P1
# c
8 12
00000000
00000000
00000000
00000000
00011100
00100010
00100000
00100000
00100000
00100010
00011100
00000000
