P3
# Krzysztof
76 12 1
1 1 1  1 1 1  1 1 1  1 1 1  1 1 1  1 1 1  1 1 1  1 1 1  1 1 1  1 1 1  1 1 1  1 1 1  1 1 1  1 1 1  1 1 1  1 1 1  1 1 1  1 1 1  1 1 1  1 1 1  1 1 1  1 1 1  1 1 1  1 1 1  1 1 1  1 1 1  1 1 1  1 1 1  1 1 1  1 1 1  1 1 1  1 1 1  1 1 1  1 1 1  1 1 1  1 1 1  1 1 1  1 1 1  1 1 1  1 1 1  1 1 1  1 1 1  1 1 1  1 1 1  1 1 1  1 1 1  1 1 1  1 1 1  1 1 1  1 1 1  1 1 1  1 1 1  1 1 1  1 1 1  1 1 1  1 1 1  1 1 1  1 1 1  1 1 1  1 1 1  1 1 1  1 1 1  1 1 1  1 1 1  1 1 1  1 1 1  1 1 1  1 1 1  1 1 1  1 1 1  1 1 1  1 1 1  1 1 1  1 1 1  1 1 1  1 1 1  
1 1 1  1 1 1  1 0 1  1 1 1  1 1 1  1 1 1  1 1 1  1 1 1  1 1 1  1 1 1  1 1 1  1 1 1  1 1 1  1 1 1  1 1 1  1 1 1  1 1 1  1 1 1  1 1 1  1 1 1  1 1 1  1 1 1  1 1 1  1 1 1  1 1 1  1 1 1  1 1 1  1 1 1  1 1 1  1 1 1  1 1 1  1 1 1  1 1 1  1 1 1  1 1 1  1 1 1  1 1 1  1 1 1  1 1 1  1 1 1  1 1 1  1 1 1  1 1 1  1 1 1  1 1 1  1 1 1  1 0 1  1 1 1  1 1 1  1 1 1  1 1 1  1 1 1  1 1 1  1 1 1  1 1 1  1 1 1  1 1 1  1 1 1  1 1 1  1 1 1  1 1 1  1 1 1  1 1 1  1 1 1  1 1 1  1 1 1  1 1 1  1 1 1  1 1 1  1 1 1  1 1 1  1 1 1  1 0 1  1 1 1  1 1 1  1 1 1  
1 1 1  1 1 1  1 0 1  1 1 1  1 1 1  1 1 1  1 1 1  1 1 1  1 1 1  1 1 1  1 1 1  1 1 1  1 1 1  1 1 1  1 1 1  1 1 1  1 1 1  1 1 1  1 1 1  1 1 1  1 1 1  1 0 1  1 1 1  1 1 1  1 1 1  1 1 1  1 0 1  1 1 1  1 1 1  1 1 1  1 1 1  1 1 1  1 1 1  1 1 1  1 1 1  1 1 1  1 1 1  1 1 1  1 1 1  1 1 1  1 1 1  1 1 1  1 1 1  1 1 1  1 1 1  1 1 1  1 0 1  1 1 1  1 1 1  1 1 1  1 1 1  1 1 1  1 1 1  1 1 1  1 1 1  1 1 1  1 1 1  1 1 1  1 1 1  1 1 1  1 1 1  1 1 1  1 1 1  1 1 1  1 0 1  1 0 1  1 1 1  1 1 1  1 1 1  1 1 1  1 1 1  1 1 1  1 0 1  1 1 1  1 1 1  1 1 1  
1 1 1  1 1 1  1 0 1  1 1 1  1 1 1  1 1 1  1 1 1  1 1 1  1 1 1  1 0 1  1 0 1  1 0 1  1 1 1  1 1 1  1 0 1  1 0 1  1 0 1  1 0 1  1 0 1  1 1 1  1 1 1  1 1 1  1 0 1  1 1 1  1 1 1  1 0 1  1 1 1  1 1 1  1 1 1  1 1 1  1 1 1  1 1 1  1 0 1  1 0 1  1 1 1  1 1 1  1 1 1  1 1 1  1 0 1  1 0 1  1 0 1  1 0 1  1 0 1  1 1 1  1 1 1  1 0 1  1 0 1  1 0 1  1 1 1  1 1 1  1 1 1  1 1 1  1 1 1  1 1 1  1 1 1  1 1 1  1 1 1  1 1 1  1 1 1  1 1 1  1 1 1  1 1 1  1 1 1  1 1 1  1 0 1  1 1 1  1 1 1  1 1 1  1 1 1  1 1 1  1 1 1  1 1 1  1 0 1  1 1 1  1 1 1  1 1 1  
1 1 1  1 1 1  1 0 1  1 1 1  1 1 1  1 0 1  1 1 1  1 1 1  1 1 1  1 0 1  1 1 1  1 0 1  1 1 1  1 1 1  1 0 1  1 1 1  1 1 1  1 1 1  1 0 1  1 1 1  1 1 1  1 1 1  1 0 1  1 1 1  1 1 1  1 0 1  1 1 1  1 1 1  1 1 1  1 1 1  1 1 1  1 0 1  1 1 1  1 1 1  1 0 1  1 1 1  1 1 1  1 1 1  1 0 1  1 1 1  1 1 1  1 1 1  1 0 1  1 1 1  1 1 1  1 1 1  1 0 1  1 1 1  1 1 1  1 1 1  1 1 1  1 1 1  1 1 1  1 1 1  1 0 1  1 0 1  1 0 1  1 1 1  1 1 1  1 1 1  1 1 1  1 1 1  1 1 1  1 0 1  1 0 1  1 0 1  1 1 1  1 1 1  1 1 1  1 1 1  1 1 1  1 1 1  1 0 1  1 1 1  1 1 1  1 1 1  
1 1 1  1 1 1  1 0 1  1 1 1  1 0 1  1 1 1  1 1 1  1 1 1  1 1 1  1 0 1  1 1 1  1 1 1  1 1 1  1 1 1  1 1 1  1 1 1  1 1 1  1 0 1  1 1 1  1 1 1  1 1 1  1 1 1  1 0 1  1 1 1  1 1 1  1 0 1  1 1 1  1 1 1  1 1 1  1 1 1  1 1 1  1 0 1  1 1 1  1 1 1  1 1 1  1 1 1  1 1 1  1 1 1  1 1 1  1 1 1  1 1 1  1 0 1  1 1 1  1 1 1  1 1 1  1 1 1  1 0 1  1 1 1  1 1 1  1 1 1  1 1 1  1 1 1  1 1 1  1 0 1  1 1 1  1 1 1  1 1 1  1 0 1  1 1 1  1 1 1  1 1 1  1 1 1  1 1 1  1 1 1  1 0 1  1 1 1  1 1 1  1 1 1  1 1 1  1 1 1  1 1 1  1 1 1  1 0 1  1 1 1  1 1 1  1 1 1  
1 1 1  1 1 1  1 0 1  1 0 1  1 1 1  1 1 1  1 1 1  1 1 1  1 1 1  1 0 1  1 1 1  1 1 1  1 1 1  1 1 1  1 1 1  1 1 1  1 0 1  1 1 1  1 1 1  1 1 1  1 1 1  1 1 1  1 1 1  1 0 1  1 0 1  1 1 1  1 1 1  1 1 1  1 1 1  1 1 1  1 1 1  1 1 1  1 0 1  1 0 1  1 1 1  1 1 1  1 1 1  1 1 1  1 1 1  1 1 1  1 0 1  1 1 1  1 1 1  1 1 1  1 1 1  1 1 1  1 0 1  1 1 1  1 1 1  1 1 1  1 1 1  1 1 1  1 0 1  1 1 1  1 1 1  1 1 1  1 1 1  1 1 1  1 0 1  1 1 1  1 1 1  1 1 1  1 1 1  1 1 1  1 0 1  1 1 1  1 1 1  1 1 1  1 1 1  1 1 1  1 1 1  1 1 1  1 0 1  1 1 1  1 1 1  1 1 1  
1 1 1  1 1 1  1 0 1  1 1 1  1 1 1  1 1 1  1 1 1  1 1 1  1 1 1  1 0 1  1 1 1  1 1 1  1 1 1  1 1 1  1 1 1  1 0 1  1 1 1  1 1 1  1 1 1  1 1 1  1 1 1  1 1 1  1 1 1  1 1 1  1 0 1  1 1 1  1 1 1  1 1 1  1 1 1  1 1 1  1 1 1  1 1 1  1 1 1  1 1 1  1 0 1  1 1 1  1 1 1  1 1 1  1 1 1  1 0 1  1 1 1  1 1 1  1 1 1  1 1 1  1 1 1  1 1 1  1 0 1  1 1 1  1 1 1  1 1 1  1 1 1  1 1 1  1 0 1  1 1 1  1 1 1  1 1 1  1 1 1  1 1 1  1 0 1  1 1 1  1 1 1  1 1 1  1 1 1  1 1 1  1 0 1  1 1 1  1 1 1  1 1 1  1 1 1  1 1 1  1 1 1  1 1 1  1 0 1  1 1 1  1 1 1  1 1 1  
1 1 1  1 1 1  1 0 1  1 0 1  1 1 1  1 1 1  1 1 1  1 1 1  1 1 1  1 0 1  1 1 1  1 1 1  1 1 1  1 1 1  1 0 1  1 1 1  1 1 1  1 1 1  1 1 1  1 1 1  1 1 1  1 1 1  1 1 1  1 1 1  1 0 1  1 1 1  1 1 1  1 1 1  1 1 1  1 1 1  1 1 1  1 0 1  1 1 1  1 1 1  1 0 1  1 1 1  1 1 1  1 1 1  1 0 1  1 1 1  1 1 1  1 1 1  1 1 1  1 1 1  1 1 1  1 1 1  1 0 1  1 1 1  1 1 1  1 1 1  1 1 1  1 1 1  1 0 1  1 1 1  1 1 1  1 1 1  1 1 1  1 1 1  1 0 1  1 1 1  1 1 1  1 1 1  1 1 1  1 1 1  1 0 1  1 1 1  1 1 1  1 1 1  1 1 1  1 1 1  1 1 1  1 1 1  1 1 1  1 1 1  1 1 1  1 1 1  
1 1 1  1 1 1  1 0 1  1 1 1  1 0 1  1 1 1  1 1 1  1 1 1  1 1 1  1 0 1  1 1 1  1 1 1  1 1 1  1 1 1  1 0 1  1 0 1  1 0 1  1 0 1  1 0 1  1 1 1  1 1 1  1 0 1  1 1 1  1 0 1  1 1 1  1 1 1  1 1 1  1 1 1  1 1 1  1 1 1  1 1 1  1 1 1  1 0 1  1 0 1  1 1 1  1 1 1  1 1 1  1 1 1  1 0 1  1 0 1  1 0 1  1 0 1  1 0 1  1 1 1  1 1 1  1 1 1  1 0 1  1 1 1  1 1 1  1 1 1  1 1 1  1 1 1  1 1 1  1 0 1  1 1 1  1 1 1  1 1 1  1 0 1  1 1 1  1 1 1  1 1 1  1 1 1  1 1 1  1 1 1  1 0 1  1 1 1  1 1 1  1 1 1  1 1 1  1 1 1  1 1 1  1 1 1  1 0 1  1 1 1  1 1 1  1 1 1  
1 1 1  1 1 1  1 0 1  1 1 1  1 1 1  1 0 1  1 1 1  1 1 1  1 1 1  1 1 1  1 1 1  1 1 1  1 1 1  1 1 1  1 1 1  1 1 1  1 1 1  1 1 1  1 1 1  1 1 1  1 1 1  1 1 1  1 0 1  1 1 1  1 1 1  1 1 1  1 1 1  1 1 1  1 1 1  1 1 1  1 1 1  1 1 1  1 1 1  1 1 1  1 1 1  1 1 1  1 1 1  1 1 1  1 1 1  1 1 1  1 1 1  1 1 1  1 1 1  1 1 1  1 1 1  1 1 1  1 1 1  1 0 1  1 1 1  1 1 1  1 1 1  1 1 1  1 1 1  1 1 1  1 0 1  1 0 1  1 0 1  1 1 1  1 1 1  1 1 1  1 1 1  1 1 1  1 1 1  1 1 1  1 0 1  1 1 1  1 1 1  1 1 1  1 1 1  1 1 1  1 1 1  1 1 1  1 1 1  1 1 1  1 1 1  1 1 1  
1 1 1  1 1 1  1 1 1  1 1 1  1 1 1  1 1 1  1 1 1  1 1 1  1 1 1  1 1 1  1 1 1  1 1 1  1 1 1  1 1 1  1 1 1  1 1 1  1 1 1  1 1 1  1 1 1  1 1 1  1 1 1  1 1 1  1 1 1  1 1 1  1 1 1  1 1 1  1 1 1  1 1 1  1 1 1  1 1 1  1 1 1  1 1 1  1 1 1  1 1 1  1 1 1  1 1 1  1 1 1  1 1 1  1 1 1  1 1 1  1 1 1  1 1 1  1 1 1  1 1 1  1 1 1  1 1 1  1 1 1  1 1 1  1 1 1  1 1 1  1 1 1  1 1 1  1 1 1  1 1 1  1 1 1  1 1 1  1 1 1  1 1 1  1 1 1  1 1 1  1 1 1  1 1 1  1 1 1  1 1 1  1 1 1  1 1 1  1 1 1  1 1 1  1 1 1  1 1 1  1 1 1  1 1 1  1 1 1  1 1 1  1 1 1  1 1 1  
