P1
# e
8 12
00000000
00000000
00000000
00000000
00111000
01000100
01000100
01111100
01000000
01000100
00111000
00000000
