P1
# g
8 12
00000000
00000000
00011010
00100110
01000010
01000010
01000010
00100110
00011010
00000010
00000010
00111100
