P1
# Krzysztof
76 12
0000000000000000000000000000000000000000000000000000000000000000000000000000
0010000000000000000000000000000000000000000000100000000000000000000000001000
0010000000000000000001000010000000000000000000100000000000000000110000001000
0010000001110011111000100100000011000011111001110000000000000000100000001000
0010010001010010001000100100000100100010001000100000001110000001110000001000
0010100001000000010000100100000100000000010000100000010001000000100000001000
0011000001000000100000011000000011000000100000100000100000100000100000001000
0010000001000001000000001000000000100001000000100000100000100000100000001000
0011000001000010000000001000000100100010000000100000100000100000100000000000
0010100001000011111001010000000011000011111000100000010001000000100000001000
0010010000000000000000100000000000000000000000010000001110000000100000000000
0000000000000000000000000000000000000000000000000000000000000000000000000000
