P1
# m
11 12
00000000000
00000000000
00000000000
00000000000
01011011000
00100100100
00100100100
00100100100
00100100100
00100100100
00100100010
00000000000
