P1
# minus
8 12
00000000
00000000
00000000
00000000
01111110
01111110
00000000
00000000
00000000
00000000
00000000
00000000
