P1
# p
7 12
0000000
0000000
0101000
0110100
0100010
0100010
0100010
0100100
0111000
0100000
0100000
0100000
