P1
# przecinek
8 12
00000000
00000000
00000000
00000000
00000000
00000000
00000000
00000000
00011000
00001000
00010000
00000000
