P1
# s
8 12
00000000
00000000
00000000
00011000
00100100
00100000
00011000
00000100
00100100
00011000
00000000
00000000
