P1
# t
7 12
0000000
0010000
0010000
0111000
0010000
0010000
0010000
0010000
0010000
0010000
0001000
0000000
