P1
# w
11 12
00000000000
00000000000
01000000010
01000100010
00101010100
00101010100
00101010100
00010001000
00010001000
00000000000
00000000000
00000000000
