P1
# z
7 12
0000000
0000000
0000000
0111110
0100010
0000100
0001000
0010000
0100000
0111110
0000000
0000000
