P1
# Krazek
189 12
000000000000000000000000000000000000000000000000000000000000000000000000000000000000000000000000000000000000000000000000000000000000000000000000000000000000000000000000000000000000000000000
001000000000000000000000000000100000000000000000000000000000000000000000000000000000000000010000000000000000000000000000010000000000000000000000000000000000000000000000000000000000000000000
001000000000000000000000000000100000000000000100000001000000000000000001000010000000000000010000000000010000100000000000010000000010000000000000000000000100000000000000000000000000000000000
001000000111000000000011111000100000000000000100010001000000000010110000100100000000000000010000001110001001000000110000111000000000000000000001011000000000001011000000000000011111000000000
001001000101000111000010001000100100001110000010101010000111000011001000100100000000000000010010001010001001000001001000010000000010000011100001100100000100001100100000000000010001000000000
001010000100001000100000010000101000010001000010101010001000100010001000100100000000000000010100001000001001000001000000010000000010000100010001000100000100001000100000000000000010000000000
001100000100000000100000100000110000100000100010101010000000100010001000011000000000000000011000001000000110000000110000010000000010000000010001000100000100001000100000000000000100000000000
001000000100000111000001000000100000100000100001000100000111000010001000001000000000000000010000001000000010000000001000010000000010000011100001000100000100001000100000000000001000000000000
001100000100001000100010000000110000100000100001000100001000100010001000001000000000000000011000001000000010000001001000010000000010000100010001000100000100001000100000000000010000000001100
001010000100001000100011111000101000010001000000000000001000100010001001010000000000000000010100001000010100000000110000010000000010000100010001000100000100001000100000000000011111000001100
001001000000000111010000000000100100001110000000000000000111010000000000100000000000000000010010000000001000000000000000001000000010000011101000000000000100000000000000000000000000000000000
000000000000000000000000000000000000000000000000000000000000000000000000000000000000000000000000000000000000000000000000000000000000000000000000000000000000000000000000000000000000000000000
