P1
# OutputName
46 12
0000000000000000000000000000000000000000000000
0010000000000000000000000000000000000000000000
0010000000000000000000000001000000000000011000
0010000000000000000000000000000010110000011000
0010010001110000010001000001000011001001111110
0010100010001000010001000001000010001001111110
0011000010001000001010000001000010001000011000
0010000011111000001010000001000010001000011000
0011000010000000000100000001000010001000000000
0010100010001000000000000001000010001000000000
0010010001110000000000000001000000000000000000
0000000000000000000000000000000000000000000000
