P1
# a
8 12
00000000
00000000
00000000
00000000
00111000
01000100
00000100
00111000
01000100
01000100
00111010
00000000
