P1
# b
7 12
0000000
0100000
0100000
0100000
0100000
0100000
0111000
0100100
0100100
0100100
0111000
0000000
