P1
# d
8 12
00000000
00000100
00000100
00000100
00000100
00111100
01000100
01000100
01000100
01000100
00111000
00000000
