P1
# f
8 12
00000000
00000000
00001100
00001000
00011100
00001000
00001000
00001000
00001000
00001000
00001000
00000000
