P1
# h
8 12
00100000
00100000
00100000
00100000
00101100
00110010
00100010
00100010
00100010
00100010
00100010
00000000
