P1
# j
7 12
0000100
0000000
0000100
0000100
0000100
0000100
0000100
0000100
0000100
0010100
0001000
0000000
