P1
# kropka
8 12
00000000
00000000
00000000
00000000
00000000
00000000
00000000
00000000
00001100
00001100
00000000
00000000
