P1
# r
6 12
000000
000000
000000
001110
001010
001000
001000
001000
001000
001000
000000
000000
