P3
# kropka
9 9 1
0 1 0  0 1 0  0 1 0  0 1 0  0 1 0  0 1 0  0 1 0  0 1 0  0 1 0
0 1 0  0 1 0  0 1 0  0 1 0  0 1 0  0 1 0  0 1 0  0 1 0  0 1 0
0 1 0  0 1 0  0 1 0  0 1 0  0 1 0  0 1 0  0 1 0  0 1 0  0 1 0
0 1 0  0 1 0  0 1 0  1 0 0  1 0 0  1 0 0  0 1 0  0 1 0  0 1 0
0 1 0  0 1 0  0 1 0  1 0 0  1 0 0  1 0 0  0 1 0  0 1 0  0 1 0
0 1 0  0 1 0  0 1 0  1 0 0  1 0 0  1 0 0  0 1 0  0 1 0  0 1 0
0 1 0  0 1 0  0 1 0  0 1 0  0 1 0  0 1 0  0 1 0  0 1 0  0 1 0
0 1 0  0 1 0  0 1 0  0 1 0  0 1 0  0 1 0  0 1 0  0 1 0  0 1 0
0 1 0  0 1 0  0 1 0  0 1 0  0 1 0  0 1 0  0 1 0  0 1 0  0 1 0