P1
# u
8 12
00000000
00000000
00000000
00100010
00100010
00100010
00100010
00100010
00100110
00011010
00000000
00000000
