P1
# v
8 12
00000000
00000000
00000000
00000000
00100010
00100010
00010100
00010100
00001000
00000000
00000000
00000000
