P1
# wykrzyknik
8 12
00000000
00001000
00001000
00001000
00001000
00001000
00001000
00001000
00000000
00001000
00000000
00000000
