P1
# x
8 12
00000000
00000000
01000100
01101100
00101000
00010000
00101000
01101100
01000100
00000000
00000000
00000000
