P1
# y
9 12
000000000
000000000
010000100
001001000
001001000
001001000
000110000
000010000
000010000
010100000
001000000
000000000
